<?xml version="1.0" encoding="UTF-8" standalone="no"?>
<!DOCTYPE svg PUBLIC "-//W3C//DTD SVG 1.1//EN"
 "http://www.w3.org/Graphics/SVG/1.1/DTD/svg11.dtd">
<!-- Generated by graphviz version 2.38.0 (20140413.2041)
 -->
<!-- Title: models_diagram Pages: 1 -->
<svg width="366pt" height="95pt"
 viewBox="0.00 0.00 365.96 95.00" xmlns="http://www.w3.org/2000/svg" xmlns:xlink="http://www.w3.org/1999/xlink">
<g id="graph0" class="graph" transform="scale(1 1) rotate(0) translate(4 91)">
<title>models_diagram</title>
<polygon fill="white" stroke="none" points="-4,4 -4,-91 361.955,-91 361.955,4 -4,4"/>
<!-- _diagram_info -->
<g id="node1" class="node"><title>_diagram_info</title>
<text text-anchor="start" x="8" y="-65.6" font-family="Times,serif" font-size="13.00">Models diagram</text>
<text text-anchor="start" x="8" y="-52.6" font-family="Times,serif" font-size="13.00">Date: Nov 26 2014 &#45; 11:17</text>
<text text-anchor="start" x="8" y="-39.6" font-family="Times,serif" font-size="13.00">Migration version: 20141126151452</text>
<text text-anchor="start" x="8" y="-26.6" font-family="Times,serif" font-size="13.00">Generated by RailRoady 1.2.0</text>
<text text-anchor="start" x="8" y="-13.6" font-family="Times,serif" font-size="13.00">http://railroady.prestonlee.com</text>
</g>
<!-- Todo -->
<g id="node2" class="node"><title>Todo</title>
<path fill="none" stroke="black" d="M236.944,-0.5C236.944,-0.5 345.955,-0.5 345.955,-0.5 351.955,-0.5 357.955,-6.5 357.955,-12.5 357.955,-12.5 357.955,-74.5 357.955,-74.5 357.955,-80.5 351.955,-86.5 345.955,-86.5 345.955,-86.5 236.944,-86.5 236.944,-86.5 230.944,-86.5 224.944,-80.5 224.944,-74.5 224.944,-74.5 224.944,-12.5 224.944,-12.5 224.944,-6.5 230.944,-0.5 236.944,-0.5"/>
<text text-anchor="middle" x="291.45" y="-71.3" font-family="Times,serif" font-size="14.00">Todo</text>
<polyline fill="none" stroke="black" points="224.944,-64.5 357.955,-64.5 "/>
<text text-anchor="start" x="232.944" y="-49.3" font-family="Times,serif" font-size="14.00">id :integer</text>
<text text-anchor="start" x="232.944" y="-35.3" font-family="Times,serif" font-size="14.00">todo_item :string</text>
<text text-anchor="start" x="232.944" y="-21.3" font-family="Times,serif" font-size="14.00">created_at :datetime</text>
<text text-anchor="start" x="232.944" y="-7.3" font-family="Times,serif" font-size="14.00">updated_at :datetime</text>
</g>
</g>
</svg>
